PathFileType	4	(X/Y/Z)	D:\TRACE\spot_10-12-23\spot_body_motion_3_5-v60.trc
DataRate	CameraRate	NumFrames	NumMarkers	Units	OrigDataRate	OrigDataStartFrame	OrigNumFrames
100.00	100.00	      21	9	mm	100.00	4376	      7000
Frame#	Time	front left toe			Front right toe			aft left toe			aft right toe			Arm			FL body			FR body			AL Body			AR Body			
		X1	Y1	Z1	X2	Y2	Z2	X3	Y3	Z3	X4	Y4	Z4	X5	Y5	Z5	X6	Y6	Z6	X7	Y7	Z7	X8	Y8	Z8	X9	Y9	Z9	

4376	43.750	-255.29123	33.25578	125.23457	222.55916	26.97239	61.43988	-195.64388	92.56033	576.82281	283.83154	76.86034	484.23154	-45.02909	813.84009	-139.31331	-123.38683	553.50464	-86.83083	26.80303	558.72693	-113.08335	14.37020	630.95374	783.04724	163.47606	630.17706	761.69977	
4377	43.760	-255.24637	33.30955	125.16267	222.62843	27.16046	61.43975	-195.24908	92.55458	576.73022	283.81396	76.91608	484.08438	-44.88379	813.77502	-139.68896	-123.32374	553.39612	-87.11674	27.07346	558.54211	-112.69355	14.25883	631.18567	782.87872	163.54398	630.46893	761.42664	
4378	43.770	-255.12656	33.33768	125.08904	222.82785	27.10357	61.44358	-195.29248	92.75521	576.64191	284.15091	77.20266	483.98062	-44.77972	813.67975	-140.11443	-123.23976	553.36865	-87.53512	27.25084	558.48633	-112.91766	14.26806	631.54315	782.49316	163.80109	630.70801	761.17889	
4379	43.780	-254.96362	33.34169	125.02018	222.27983	26.90012	61.86490	-195.17967	93.00385	576.56580	284.05170	77.30435	483.87653	-44.70911	813.67072	-140.37912	-123.08117	553.28583	-87.77801	27.33464	558.61926	-113.83356	14.52538	631.73645	782.02020	164.01305	630.91260	760.94659	
4380	43.790	-254.85326	33.39280	124.98698	222.37943	26.88546	61.84957	-195.00476	93.16089	576.46210	284.21762	77.44659	483.79279	-44.65139	813.61633	-140.77090	-122.86253	553.17664	-87.95976	27.34174	558.58997	-114.28442	14.49760	631.90466	781.73547	164.24040	631.14581	760.77063	
4381	43.800	-254.72354	33.39536	124.89449	222.70116	26.90971	61.79174	-194.78345	93.32947	576.37231	284.35544	77.54205	483.55518	-44.54803	813.51154	-141.09082	-122.83484	553.16132	-88.25964	27.34609	558.33044	-113.98036	14.60652	632.01526	781.30573	164.42987	631.35504	760.55170	
4382	43.810	-254.54549	33.37657	124.85299	222.98424	26.88722	61.81794	-194.62563	93.52802	576.27411	284.59103	77.71104	483.54816	-44.35328	813.42169	-141.34395	-122.83966	553.17242	-88.50637	27.38227	558.30188	-114.23367	14.53528	632.46246	781.02875	165.51923	631.90173	761.08551	
4383	43.820	-254.28751	33.38290	124.83815	222.98843	26.81523	61.53880	-194.49004	93.64887	576.18695	284.85144	77.82696	483.53958	-44.14013	813.28662	-141.61826	-122.69786	553.10602	-88.65663	27.49341	558.21637	-114.45988	14.84934	632.57269	780.80994	165.87064	632.17981	760.87128	
4384	43.830	-254.16769	33.44353	124.77214	223.14986	26.89142	61.48138	-194.31126	93.72604	576.10730	285.05286	77.93414	483.54431	-43.87651	813.19586	-141.86755	-122.53223	552.99811	-88.83664	27.62452	558.11755	-114.69426	15.21946	632.78125	780.87262	166.02545	632.22278	760.62567	
4385	43.840	-254.09732	33.48616	124.71531	223.26147	26.90041	61.44267	-194.13214	93.79358	576.10004	285.40085	78.12439	483.61768	-43.66866	813.05164	-142.24905	-122.31821	552.86969	-89.06800	27.80807	558.05060	-114.85283	15.48797	632.86389	780.89307	166.17825	632.32764	760.44965	
4386	43.850	-254.05212	33.53943	124.65219	223.96742	27.20292	61.08458	-193.88147	93.83129	576.11694	285.55856	78.23862	483.58304	-43.53390	812.99591	-142.51277	-122.05640	552.79449	-89.31606	27.96403	557.99530	-115.00557	15.26642	633.04596	780.60706	165.25156	631.97736	759.18304	
4387	43.860	-253.89583	33.61117	124.57374	224.21388	27.30067	61.04451	-193.70563	93.88044	576.06061	285.48947	78.07508	483.43961	-43.50645	812.96149	-142.76299	-121.88293	552.75635	-89.56410	28.10351	558.20184	-115.80940	15.57686	633.16998	780.24139	165.34845	632.04767	759.04803	
4388	43.870	-253.68726	33.60711	124.59538	224.45325	27.39203	61.01314	-193.57202	93.90878	576.07220	285.57605	78.15077	483.50797	-43.44856	812.94464	-142.96141	-121.74027	552.72339	-89.73119	28.42163	557.87378	-115.38367	15.67064	633.29199	779.90118	165.45877	632.11871	758.83380	
4389	43.880	-253.44623	33.62932	124.57603	224.42805	27.17559	60.88773	-193.45833	93.92698	576.02545	285.73956	78.07739	483.39648	-43.35889	812.91846	-143.09987	-121.64407	552.73755	-89.88889	28.58339	557.84613	-115.56384	16.01087	633.14929	779.67621	165.58864	632.25250	758.63721	
4390	43.890	-253.29736	33.66432	124.54656	224.56721	27.31519	60.95819	-193.31248	93.94743	575.99725	285.92868	78.13387	483.43851	-43.21120	812.93707	-143.26268	-121.55634	552.73462	-90.02100	28.73108	557.82086	-115.79504	16.17778	633.20685	779.45782	165.73807	632.42310	758.51093	
4391	43.900	-253.22247	33.70167	124.54349	224.64638	27.17436	60.85205	-193.18857	93.94933	576.01465	286.02087	78.11142	483.44232	-43.15144	812.79132	-143.47270	-121.35200	552.66803	-90.15454	28.85948	557.83032	-115.90222	16.21198	633.16669	779.26837	165.92514	632.55212	758.37085	
4392	43.910	-253.08218	33.67756	124.52267	224.67569	27.11419	60.79495	-193.06252	93.93705	576.01965	285.59656	78.26208	483.92331	-42.95441	812.78577	-143.68506	-121.22453	552.56433	-90.26534	28.99812	557.74524	-116.03931	16.37699	633.31757	779.17828	166.06558	632.64380	758.25824	
4393	43.920	-252.95221	33.67506	124.52436	224.71526	27.15166	60.75717	-192.96970	93.90302	576.04138	286.37070	78.20044	483.49600	-42.88974	812.73932	-143.91988	-121.09825	552.48450	-90.33519	29.09730	557.70776	-116.19464	16.55427	633.28345	779.15991	166.63605	634.78107	758.95117	
4394	43.930	-252.81468	33.66783	124.50873	224.80519	27.09339	60.71524	-192.86356	93.86926	576.04596	285.72971	78.16497	483.91650	-42.77557	812.63861	-144.17122	-120.97290	552.41254	-90.44184	29.21964	557.67560	-116.30230	16.69115	633.42102	779.11554	166.85155	634.83459	758.76666	
4395	43.940	-252.70465	33.66155	124.48232	225.11176	27.25398	60.66955	-192.69955	93.79366	576.08862	286.42154	77.97726	483.46829	-42.58681	812.56604	-144.39153	-120.91015	552.36377	-90.51334	29.34213	557.54736	-116.37766	16.80321	633.54999	778.94897	167.45235	633.23602	758.75305	
4396	43.950	-252.60730	33.67130	124.44145	225.19270	27.19903	60.79242	-192.61650	93.76974	576.09698	286.73807	78.14666	483.64029	-42.53643	812.49640	-144.61232	-120.74978	552.27069	-90.72229	29.34404	557.78827	-117.14498	16.77242	633.57965	778.72919	167.56819	633.33411	758.49023	
